# xmcd
#
# Track frame offsets:
#	151
#	28214
#	52591
#	81466
#	99129
#	120326
#	139617
#	161782
#	186613
#	211914
#
# Disc length: 3098 seconds
#
# Revision: 1
# Processed by: cddbd v1.4PL0 Copyright (c) Steve Scherf et al.
# Submitted via: EasyCDDAExtractor 5.0.7
#
DISCID=810c180a
DTITLE=Lam Truong - The Best of Lam Truong
DYEAR=1900
DGENRE=
TTITLE0=Bien Cho
TTITLE1=Tinh Thoi Xot Xa
TTITLE2=Chieu Mua Ha Noi
TTITLE3=Nhung Loi Doi Gian
TTITLE4=Noi Nho Diu Em
TTITLE5=Em Di Qua Toi
TTITLE6=Tuyet Lanh
TTITLE7=Noi Ay Binh Yen
TTITLE8=Ve Voi Anh
TTITLE9=Trai Tim Khong Ngu Yen
EXTD=
EXTT0=
EXTT1=
EXTT2=
EXTT3=
EXTT4=
EXTT5=
EXTT6=
EXTT7=
EXTT8=
EXTT9=
PLAYORDER=
